# xmcd CD database file
# Copyright (C) 1993-1998 Ti Kan
# 
# Track frame offsets:
#     150
#     19277
#     43804
#     61881
#     91058
# 
# Disc length: 1444 seconds
# 
# Revision: 1
# Processed by: cddbd v1.4b41PL1 Copyright (c) Steve Scherf et al.
# Submitted via: DiscPlay 4.0.4
# 
DISCID=3805a205
DTITLE=Ben Harper - Gold to Me
DYEAR=1900
DGENRE=
TTITLE0=Gold to Me(Radio Edit)
TTITLE1=Excuse Me Mr. (Album Version)
TTITLE2=Burn One Down (Live)
TTITLE3=Don't Take That Attitude to Your Grave (LIve)
TTITLE4=Whipping Boy (Remix)
EXTD=
EXTT0=
EXTT1=
EXTT2=
EXTT3=
EXTT4=
PLAYORDER=
